<?xml version="1.0" encoding="UTF-8" standalone="no"?>
<!-- Created with Inkscape (http://www.inkscape.org/) -->

<svg
   width="210mm"
   height="297mm"
   viewBox="0 0 210 297"
   version="1.1"
   id="svg1"
   inkscape:version="1.4 (e7c3feb100, 2024-10-09)"
   sodipodi:docname="Scout.svg"
   xml:space="preserve"
   xmlns:inkscape="http://www.inkscape.org/namespaces/inkscape"
   xmlns:sodipodi="http://sodipodi.sourceforge.net/DTD/sodipodi-0.dtd"
   xmlns:xlink="http://www.w3.org/1999/xlink"
   xmlns="http://www.w3.org/2000/svg"
   xmlns:svg="http://www.w3.org/2000/svg"><sodipodi:namedview
     id="namedview1"
     pagecolor="#ffffff"
     bordercolor="#000000"
     borderopacity="0.25"
     inkscape:showpageshadow="2"
     inkscape:pageopacity="0.0"
     inkscape:pagecheckerboard="0"
     inkscape:deskcolor="#d1d1d1"
     inkscape:document-units="mm"
     inkscape:zoom="0.98165964"
     inkscape:cx="84.55069"
     inkscape:cy="202.71792"
     inkscape:window-width="1920"
     inkscape:window-height="1131"
     inkscape:window-x="0"
     inkscape:window-y="32"
     inkscape:window-maximized="1"
     inkscape:current-layer="g66"
     showgrid="false"><inkscape:page
       x="0"
       y="0"
       width="210"
       height="297"
       id="page21"
       margin="0"
       bleed="0" /><inkscape:page
       x="220"
       y="0"
       width="37.288612"
       height="25.929167"
       id="page22"
       margin="0"
       bleed="0" /><inkscape:page
       x="267.2886"
       y="0"
       width="37.288612"
       height="25.929167"
       id="page63"
       margin="0"
       bleed="0" /></sodipodi:namedview><defs
     id="defs1"><inkscape:path-effect
       effect="perspective-envelope"
       up_left_point="44.790407,-0.0031442166"
       up_right_point="95.928569,-0.0031442166"
       down_left_point="-257.45685,92.595307"
       down_right_point="383.38461,92.595307"
       id="path-effect169"
       is_visible="true"
       lpeversion="1"
       deform_type="perspective"
       horizontal_mirror="false"
       vertical_mirror="false"
       overflow_perspective="false" /><linearGradient
       id="linearGradient120"
       inkscape:collect="always"><stop
         style="stop-color:#000000;stop-opacity:0.17992263;"
         offset="0"
         id="stop120" /><stop
         style="stop-color:#720000;stop-opacity:0;"
         offset="0.81037903"
         id="stop121" /></linearGradient><linearGradient
       id="linearGradient118"
       inkscape:collect="always"><stop
         style="stop-color:#fbed32;stop-opacity:1;"
         offset="0.62532669"
         id="stop118" /><stop
         style="stop-color:#fb8032;stop-opacity:0;"
         offset="0.93869609"
         id="stop119" /></linearGradient><linearGradient
       id="linearGradient104"
       inkscape:collect="always"><stop
         style="stop-color:#febd18;stop-opacity:0;"
         offset="0.49821988"
         id="stop105" /><stop
         style="stop-color:#febd18;stop-opacity:0.79058105;"
         offset="1"
         id="stop104" /></linearGradient><inkscape:path-effect
       effect="perspective-envelope"
       up_left_point="44.790407,-0.0031442166"
       up_right_point="95.928569,-0.0031442166"
       down_left_point="-257.45685,92.595307"
       down_right_point="383.38461,92.595307"
       id="path-effect64"
       is_visible="true"
       lpeversion="1"
       deform_type="perspective"
       horizontal_mirror="false"
       vertical_mirror="false"
       overflow_perspective="false" /><linearGradient
       id="swatch43"
       inkscape:swatch="solid"><stop
         style="stop-color:#8e19c4;stop-opacity:1;"
         offset="0"
         id="stop43" /></linearGradient><inkscape:path-effect
       effect="fillet_chamfer"
       id="path-effect34"
       is_visible="true"
       lpeversion="1"
       nodesatellites_param="F,0,0,1,0,14.022916,0,3 @ F,0,0,1,0,14.022916,0,3 @ F,0,0,1,0,14.022916,0,3 @ F,0,0,1,0,14.022916,0,3"
       radius="52"
       unit="px"
       method="bezier"
       mode="F"
       chamfer_steps="3"
       flexible="false"
       use_knot_distance="true"
       apply_no_radius="true"
       apply_with_radius="true"
       only_selected="false"
       hide_knots="false" /><inkscape:path-effect
       effect="perspective-envelope"
       up_left_point="122.43747,53.544224"
       up_right_point="144.34021,53.544224"
       down_left_point="114.43158,79.12131"
       down_right_point="150.71642,79.12131"
       id="path-effect33"
       is_visible="true"
       lpeversion="1"
       deform_type="perspective"
       horizontal_mirror="false"
       vertical_mirror="false"
       overflow_perspective="false" /><inkscape:path-effect
       effect="envelope"
       id="path-effect32"
       is_visible="true"
       lpeversion="1"
       yy="true"
       xx="true"
       bendpath1="m 114.54613,53.597822 h 36.28484"
       bendpath2="M 150.83097,53.597822 V 79.174908"
       bendpath3="m 114.54613,79.174908 h 36.28484"
       bendpath4="M 114.54613,53.597822 V 79.174908" /><inkscape:path-effect
       effect="bend_path"
       id="path-effect4"
       is_visible="true"
       lpeversion="1"
       bendpath="m -455.98501,407.71222 c 7.93192,-109.0197 160.86128,-107.47399 168.6563,0.17584"
       prop_scale="1.2015938"
       scale_y_rel="false"
       vertical="false"
       hide_knot="false"
       bendpath-nodetypes="cc" /><inkscape:path-effect
       effect="bend_path"
       id="path-effect3"
       is_visible="true"
       lpeversion="1"
       bendpath="m -435.24792,312.64472 h 137.13955"
       prop_scale="0.94245647"
       scale_y_rel="false"
       vertical="false"
       hide_knot="false" /><inkscape:path-effect
       effect="perspective-envelope"
       up_left_point="-435.24792,264.31007"
       up_right_point="-298.10837,264.31007"
       down_left_point="-435.24792,360.97936"
       down_right_point="-298.10837,360.97936"
       id="path-effect88"
       is_visible="true"
       lpeversion="1"
       deform_type="perspective"
       horizontal_mirror="false"
       vertical_mirror="false"
       overflow_perspective="false" /><inkscape:path-effect
       effect="perspective-envelope"
       up_left_point="-435.24792,264.31007"
       up_right_point="-298.10837,264.31007"
       down_left_point="-435.24792,360.97936"
       down_right_point="-298.10837,360.97936"
       id="path-effect24"
       is_visible="true"
       lpeversion="1"
       deform_type="perspective"
       horizontal_mirror="false"
       vertical_mirror="false"
       overflow_perspective="false" /><inkscape:path-effect
       effect="perspective-envelope"
       up_left_point="108.08,63.960245"
       up_right_point="133.94,63.960245"
       down_left_point="91.678417,89.095664"
       down_right_point="150.14154,89.095664"
       id="path-effect15"
       is_visible="true"
       lpeversion="1"
       deform_type="perspective"
       horizontal_mirror="false"
       vertical_mirror="false"
       overflow_perspective="false" /><inkscape:path-effect
       effect="fill_between_many"
       method="originald"
       linkedpaths="#path8,0,1|"
       id="path-effect19" /><inkscape:path-effect
       effect="fill_between_many"
       method="originald"
       linkedpaths="#path20,0,1|"
       id="path-effect25" /><inkscape:path-effect
       effect="fill_between_many"
       method="originald"
       linkedpaths="#path26,0,1|"
       id="path-effect26" /><inkscape:path-effect
       effect="fill_between_many"
       method="originald"
       linkedpaths="#path34,0,1|"
       id="path-effect35" /><clipPath
       clipPathUnits="userSpaceOnUse"
       id="clipPath62"><use
         x="0"
         y="0"
         xlink:href="#g61"
         id="use62" /></clipPath><clipPath
       clipPathUnits="userSpaceOnUse"
       id="clipPath66"><use
         x="0"
         y="0"
         xlink:href="#g65"
         id="use66" /></clipPath><linearGradient
       inkscape:collect="always"
       xlink:href="#linearGradient104"
       id="linearGradient105"
       x1="48.963329"
       y1="64.650742"
       x2="153.5585"
       y2="64.650742"
       gradientUnits="userSpaceOnUse"
       gradientTransform="matrix(0.15318115,0,0,3.7108625,-77.345497,-139.41155)" /><clipPath
       clipPathUnits="userSpaceOnUse"
       id="clipPath108"><use
         x="0"
         y="0"
         xlink:href="#g107"
         id="use108" /></clipPath><radialGradient
       inkscape:collect="always"
       xlink:href="#linearGradient118"
       id="radialGradient119"
       cx="102.50449"
       cy="54.002514"
       fx="102.50449"
       fy="54.002514"
       r="31.388483"
       gradientUnits="userSpaceOnUse" /><linearGradient
       inkscape:collect="always"
       xlink:href="#linearGradient120"
       id="linearGradient121"
       x1="106.70699"
       y1="13.860011"
       x2="106.70699"
       y2="29.951315"
       gradientUnits="userSpaceOnUse"
       gradientTransform="matrix(1,0,0,3.0187373,-12.337157,-28.107599)" /><linearGradient
       inkscape:collect="always"
       xlink:href="#linearGradient120"
       id="linearGradient169"
       gradientUnits="userSpaceOnUse"
       gradientTransform="matrix(1,0,0,3.0187373,-12.337157,-28.107599)"
       x1="106.70699"
       y1="13.860011"
       x2="106.70699"
       y2="29.951315" /><radialGradient
       inkscape:collect="always"
       xlink:href="#linearGradient118"
       id="radialGradient169"
       gradientUnits="userSpaceOnUse"
       cx="102.50449"
       cy="54.002514"
       fx="102.50449"
       fy="54.002514"
       r="31.388483" /><linearGradient
       inkscape:collect="always"
       xlink:href="#linearGradient104"
       id="linearGradient170"
       gradientUnits="userSpaceOnUse"
       gradientTransform="matrix(0.15318115,0,0,3.7108625,-77.345497,-139.41155)"
       x1="48.963329"
       y1="64.650742"
       x2="153.5585"
       y2="64.650742" /><clipPath
       clipPathUnits="userSpaceOnUse"
       id="clipPath171"><use
         x="0"
         y="0"
         xlink:href="#g170"
         id="use171" /></clipPath></defs><g
     id="g1"
     inkscape:groupmode="layer"
     inkscape:label="1"
     transform="matrix(0.26458334,0,0,0.26458334,220.00001,0)"><g
       inkscape:label="Layer 1"
       inkscape:groupmode="layer"
       id="layer1"
       transform="matrix(3.7795275,0,0,3.7795275,-831.49608,0)"><g
         id="g62"
         clip-path="url(#clipPath62)"
         transform="matrix(0.88074958,0,0,0.88074958,-37.459876,24.004999)"
         inkscape:label="circular icon"><g
           inkscape:label="Clip"
           id="g61"
           transform="matrix(0.77272729,0,0,0.77272729,18.592256,3.9680115)"><circle
             style="fill:#dc0500;fill-opacity:1;stroke:none;stroke-width:3.59969;stroke-dasharray:none;stroke-opacity:1"
             id="path61"
             cx="108.59229"
             cy="64.708397"
             r="41.707138" /></g><rect
           style="opacity:1;fill:url(#linearGradient121);stroke:none;stroke-width:3.18788;stroke-dasharray:none;stroke-opacity:1"
           id="rect120"
           width="98.194992"
           height="48.192951"
           x="45.272339"
           y="13.923356" /><g
           id="g119"
           transform="translate(0,9.4975465)"><path
             id="path118"
             style="opacity:1;fill:url(#radialGradient119);fill-opacity:1;stroke:none;stroke-width:2.40161;stroke-dasharray:none;stroke-opacity:1"
             d="M 102.50467,22.614129 A 31.388483,31.388483 0 0 0 71.116242,54.002552 31.388483,31.388483 0 0 0 102.50467,85.390975 31.388483,31.388483 0 0 0 133.89309,54.002552 31.388483,31.388483 0 0 0 102.50467,22.614129 Z m 0,27.919661 a 3.468698,3.468698 0 0 1 3.46876,3.468762 3.468698,3.468698 0 0 1 -3.46876,3.468762 3.468698,3.468698 0 0 1 -3.468767,-3.468762 3.468698,3.468698 0 0 1 3.468767,-3.468762 z" /><g
             id="g110"
             transform="matrix(0.23156081,0,0,0.23156081,248.81786,-10.904231)"><path
               id="path109"
               style="opacity:1;fill:#f6e5e5;fill-opacity:1;stroke:none;stroke-width:11.5604;stroke-dasharray:none;stroke-opacity:1"
               d="m -631.85741,187.88085 a 92.419342,92.419342 0 0 0 -92.41992,92.41992 92.419342,92.419342 0 0 0 92.41992,92.41992 92.419342,92.419342 0 0 0 92.41992,-92.41992 92.419342,92.419342 0 0 0 -92.41992,-92.41992 z m 0,78.16602 a 14.253728,14.253728 0 0 1 14.2539,14.2539 14.253728,14.253728 0 0 1 -14.2539,14.25391 14.253728,14.253728 0 0 1 -14.25391,-14.25391 14.253728,14.253728 0 0 1 14.25391,-14.2539 z" /><path
               id="path19"
               d="m -623.98782,266.81921 a 11.764253,11.764253 0 0 1 1.57611,1.7323 l 60.94557,-45.23978 v 0 a 87.66614,87.66614 0 0 0 -11.7691,-12.92989"
               style="fill:#f04f00;fill-opacity:1;stroke-width:3.79619" /><path
               id="path25"
               d="m -625.87339,265.43488 a 11.764253,11.764253 0 0 1 1.88557,1.38433 l 50.75258,-56.43737 v 0 A 87.66614,87.66614 0 0 0 -587.272,200.08249"
               style="fill:#febd18;fill-opacity:1;stroke-width:3.79619" /><path
               id="path27"
               d="m -627.94287,264.46945 a 11.764253,11.764253 0 0 1 2.06948,0.96543 l 38.60139,-65.35239 v 0 a 87.66614,87.66614 0 0 0 -15.44534,-7.19992"
               style="fill:#fbed32;fill-opacity:1;stroke-width:3.79619" /><path
               id="path28"
               d="m -630.45915,265.00036 a 11.764253,11.764253 0 0 1 2.27224,0.55557 l 25.23505,-71.58346 v 0 a 87.66614,87.66614 0 0 0 -16.91294,-4.13036"
               style="fill:#febd18;fill-opacity:1;stroke-width:3.79619" /><path
               id="path111"
               d="m -623.98782,266.81921 a 11.764253,11.764253 0 0 1 1.57611,1.7323 l 60.94557,-45.23978 v 0 a 87.66614,87.66614 0 0 0 -11.7691,-12.92989"
               style="fill:#f04f00;fill-opacity:1;stroke-width:3.79619"
               transform="rotate(180,-631.85724,280.30109)" /><path
               id="path112"
               d="m -625.87339,265.43488 a 11.764253,11.764253 0 0 1 1.88557,1.38433 l 50.75258,-56.43737 v 0 A 87.66614,87.66614 0 0 0 -587.272,200.08249"
               style="fill:#febd18;fill-opacity:1;stroke-width:3.79619"
               transform="rotate(180,-631.85724,280.30109)" /><path
               id="path113"
               d="m -627.94287,264.46945 a 11.764253,11.764253 0 0 1 2.06948,0.96543 l 38.60139,-65.35239 v 0 a 87.66614,87.66614 0 0 0 -15.44534,-7.19992"
               style="fill:#fbed32;fill-opacity:1;stroke-width:3.79619"
               transform="rotate(180,-631.85724,280.30109)" /><path
               id="path114"
               d="m -630.45915,265.00036 a 11.764253,11.764253 0 0 1 2.27224,0.55557 l 25.23505,-71.58346 v 0 a 87.66614,87.66614 0 0 0 -16.91294,-4.13036"
               style="fill:#febd18;fill-opacity:1;stroke-width:3.79619"
               transform="rotate(180,-631.85724,280.30109)" /><path
               id="path115"
               d="m -632.14676,260.95245 a 11.764253,11.194976 0 0 1 2.34019,0.0875 l 10.51161,-71.53233 v 0 a 87.66614,83.423939 0 0 0 -17.47077,-0.64966"
               style="fill:#f04f00;fill-opacity:1;stroke-width:3.70321"
               transform="rotate(180,-631.85724,280.30109)" /><path
               id="path29"
               d="m -632.14676,260.95245 a 11.764253,11.194976 0 0 1 2.34019,0.0875 l 10.51161,-71.53233 v 0 a 87.66614,83.423939 0 0 0 -17.47077,-0.64966"
               style="fill:#f04f00;fill-opacity:1;stroke-width:3.70321" /><path
               id="path106"
               style="fill:#f8f8f8;fill-opacity:1;stroke:#2e2e2e;stroke-width:3.29497;stroke-dasharray:none;stroke-opacity:1"
               d="m -631.85726,245.90705 c -18.99529,2e-5 -34.39402,15.39875 -34.39404,34.39404 3e-5,18.99529 15.39875,34.39401 34.39404,34.39403 18.99529,-3e-5 34.394,-15.39874 34.39403,-34.39403 -2e-5,-18.99529 -15.39874,-34.39401 -34.39403,-34.39404 z m 0,19.75099 c 8.0871,7e-5 14.64298,6.55595 14.64305,14.64305 -7e-5,8.0871 -6.55595,14.64298 -14.64305,14.64305 -8.08711,-6e-5 -14.64299,-6.55594 -14.64306,-14.64305 7e-5,-8.08711 6.55595,-14.64299 14.64306,-14.64305 z"
               sodipodi:nodetypes="sssssccccc" /><circle
               style="opacity:1;fill:#000000;fill-opacity:0;stroke:#2e2e2e;stroke-width:7.4333;stroke-dasharray:none;stroke-opacity:1"
               id="circle109"
               cx="-631.85724"
               cy="280.30109"
               r="92.419342" /></g></g><g
           id="g66"
           clip-path="url(#clipPath66)"
           transform="matrix(1.4820396,0,0,0.7377295,-51.591251,22.220845)"><g
             inkscape:label="Clip"
             id="g65"><rect
               style="fill:#720000;fill-opacity:1;stroke:none;stroke-width:1.89622;stroke-dasharray:none;stroke-opacity:1"
               id="rect64"
               width="104.80468"
               height="46.474476"
               x="54.624664"
               y="53.838024" /></g><g
             id="g64"
             transform="matrix(0.99446754,0,0,0.34790703,33.526018,53.810028)"
             style="fill:#b82600;fill-opacity:1"
             inkscape:path-effect="#path-effect64"><path
               id="path2"
               d="m -1930.9265,40.535199 h 50.5988 L 339.96566,735.02357 h -4.0377 z"
               style="fill:#b82600;fill-opacity:1;fill-rule:nonzero;stroke:none"
               transform="matrix(0.13333333,0,0,-0.13333333,0,98)"
               inkscape:original-d="m 84.1875,40.5352 h 9.35547 v 694.488 H 84.1875 Z" /><path
               id="path3-2"
               d="m -1829.7313,40.535199 h 50.5988 L 348.04088,735.02357 h -4.0377 z"
               style="fill:#b82600;fill-opacity:1;fill-rule:nonzero;stroke:none"
               transform="matrix(0.13333333,0,0,-0.13333333,0,98)"
               inkscape:original-d="m 102.898,40.5352 h 9.35547 v 694.488 H 102.898 Z" /><path
               id="path4"
               d="m -1728.5551,40.535199 h 50.5988 L 356.11459,735.02357 h -4.0377 z"
               style="fill:#b82600;fill-opacity:1;fill-rule:nonzero;stroke:none"
               transform="matrix(0.13333333,0,0,-0.13333333,0,98)"
               inkscape:original-d="m 121.605,40.5352 h 9.35547 v 694.488 H 121.605 Z" /><path
               id="path5"
               d="m -1627.3572,40.535199 202.353,0 1801.30399,694.488371 h -16.14746 z"
               style="fill:#b82600;fill-opacity:1;fill-rule:nonzero;stroke:none"
               transform="matrix(0.13333333,0,0,-0.13333333,0,98)"
               inkscape:original-d="m 140.316,40.5352 h 37.4141 v 694.488 H 140.316 Z" /><path
               id="path6-6"
               d="m -540.81439,370.45155 h 56.95979 L 388.41315,735.0236 h -8.07539 z"
               style="fill:#b82600;fill-opacity:1;fill-rule:nonzero;stroke:none"
               transform="matrix(0.13333333,0,0,-0.13333333,0,98)"
               inkscape:original-d="m 187.086,87.3086 h 18.7109 v 647.715 H 187.086 Z" /><path
               id="path7-1"
               d="m -455.38795,370.45155 h 85.42797 L 404.56039,735.0236 h -12.11142 z"
               style="fill:#b82600;fill-opacity:1;fill-rule:nonzero;stroke:none"
               transform="matrix(0.13333333,0,0,-0.13333333,0,98)"
               inkscape:original-d="m 215.148,87.3086 h 28.0625 v 647.715 H 215.148 Z" /><path
               id="path8"
               d="m -312.99836,370.45155 h 28.47996 L 416.67375,735.0236 h -4.03771 z"
               style="fill:#b82600;fill-opacity:1;fill-rule:nonzero;stroke:none"
               transform="matrix(0.13333333,0,0,-0.13333333,0,98)"
               inkscape:original-d="m 261.922,87.3086 h 9.35547 v 647.715 H 261.922 Z" /><path
               id="path9"
               d="m -227.57192,370.45155 56.94792,0 603.44496,364.57205 h -8.07371 z"
               style="fill:#b82600;fill-opacity:1;fill-rule:nonzero;stroke:none"
               transform="matrix(0.13333333,0,0,-0.13333333,0,98)"
               inkscape:original-d="m 289.984,87.3086 h 18.707 v 647.715 h -18.707 z" /><path
               id="path10"
               d="m -113.6639,370.45155 56.947921,0 L 448.9701,735.0236 h -8.07371 z"
               style="fill:#b82600;fill-opacity:1;fill-rule:nonzero;stroke:none"
               transform="matrix(0.13333333,0,0,-0.13333333,0,98)"
               inkscape:original-d="m 327.402,87.3086 h 18.707 v 647.715 h -18.707 z" /><path
               id="path11"
               d="m 0.24411747,370.45155 28.46805453,0 432.369368,364.57205 h -4.03601 z"
               style="fill:#b82600;fill-opacity:1;fill-rule:nonzero;stroke:none"
               transform="matrix(0.13333333,0,0,-0.13333333,0,98)"
               inkscape:original-d="m 364.82,87.3086 h 9.35156 v 647.715 H 364.82 Z" /><path
               id="path12"
               d="m 85.673608,370.45155 56.947922,0 334.60934,364.57205 h -8.0737 z"
               style="fill:#b82600;fill-opacity:1;fill-rule:nonzero;stroke:none"
               transform="matrix(0.13333333,0,0,-0.13333333,0,98)"
               inkscape:original-d="m 392.883,87.3086 h 18.707 v 647.715 h -18.707 z" /><path
               id="path13"
               d="m 199.58162,370.45155 h 28.46806 L 489.34232,735.0236 h -4.03601 z"
               style="fill:#b82600;fill-opacity:1;fill-rule:nonzero;stroke:none"
               transform="matrix(0.13333333,0,0,-0.13333333,0,98)"
               inkscape:original-d="m 430.301,87.3086 h 9.35156 v 647.715 H 430.301 Z" /><path
               id="path14"
               d="m 313.47746,370.45155 56.9598,0 139.09185,364.57205 h -8.07539 z"
               style="fill:#b82600;fill-opacity:1;fill-rule:nonzero;stroke:none"
               transform="matrix(0.13333333,0,0,-0.13333333,0,98)"
               inkscape:original-d="m 467.715,87.3086 h 18.7109 v 647.715 H 467.715 Z" /><path
               id="path15"
               d="m 398.91609,370.45155 h 28.46805 l 90.21853,364.57205 h -4.03602 z"
               style="fill:#b82600;fill-opacity:1;fill-rule:nonzero;stroke:none"
               transform="matrix(0.13333333,0,0,-0.13333333,0,98)"
               inkscape:original-d="m 495.781,87.3086 h 9.35156 v 647.715 H 495.781 Z" /><path
               id="path16"
               d="m 396.34026,40.535199 50.59876,0 78.73904,694.488371 h -4.03771 z"
               style="fill:#b82600;fill-opacity:1;fill-rule:nonzero;stroke:none"
               transform="matrix(0.13333333,0,0,-0.13333333,0,98)"
               inkscape:original-d="m 514.488,40.5352 h 9.35547 v 694.488 H 514.488 Z" /><path
               id="path17"
               d="m 497.51648,40.535199 h 50.59877 L 533.75177,735.02357 h -4.03771 z"
               style="fill:#b82600;fill-opacity:1;fill-rule:nonzero;stroke:none"
               transform="matrix(0.13333333,0,0,-0.13333333,0,98)"
               inkscape:original-d="m 533.195,40.5352 h 9.35547 v 694.488 H 533.195 Z"
               sodipodi:nodetypes="ccccc" /><path
               id="path18-8"
               d="m 569.77202,370.45155 85.42797,0 L 549.90092,735.0236 H 537.7895 Z"
               style="fill:#b82600;fill-opacity:1;fill-rule:nonzero;stroke:none"
               transform="matrix(0.13333333,0,0,-0.13333333,0,98)"
               inkscape:original-d="m 551.906,87.3086 h 28.0625 v 647.715 H 551.906 Z" /><path
               id="path19-7"
               d="m 712.14943,370.45155 28.47996,0 -178.61684,364.57205 h -4.03771 z"
               style="fill:#b82600;fill-opacity:1;fill-rule:nonzero;stroke:none"
               transform="matrix(0.13333333,0,0,-0.13333333,0,98)"
               inkscape:original-d="m 598.676,87.3086 h 9.35547 v 647.715 H 598.676 Z" /><path
               id="path20"
               d="m 769.10953,370.45155 85.42797,0 -276.3758,364.57205 h -12.11142 z"
               style="fill:#b82600;fill-opacity:1;fill-rule:nonzero;stroke:none"
               transform="matrix(0.13333333,0,0,-0.13333333,0,98)"
               inkscape:original-d="m 617.387,87.3086 h 28.0625 v 647.715 H 617.387 Z" /><path
               id="path21"
               d="m 911.4839,370.45155 h 28.47995 L 590.2729,735.0236 h -4.03771 z"
               style="fill:#b82600;fill-opacity:1;fill-rule:nonzero;stroke:none"
               transform="matrix(0.13333333,0,0,-0.13333333,0,98)"
               inkscape:original-d="m 664.156,87.3086 h 9.35547 v 647.715 H 664.156 Z" /><path
               id="path22"
               d="M 968.44399,370.45155 H 1053.872 L 606.42205,735.0236 h -12.11143 z"
               style="fill:#b82600;fill-opacity:1;fill-rule:nonzero;stroke:none"
               transform="matrix(0.13333333,0,0,-0.13333333,0,98)"
               inkscape:original-d="m 682.867,87.3086 h 28.0625 v 647.715 H 682.867 Z" /><path
               id="path23"
               d="m 1110.8214,370.45155 h 28.48 L 618.53367,735.0236 h -4.0377 z"
               style="fill:#b82600;fill-opacity:1;fill-rule:nonzero;stroke:none"
               transform="matrix(0.13333333,0,0,-0.13333333,0,98)"
               inkscape:original-d="m 729.637,87.3086 h 9.35547 v 647.715 H 729.637 Z" /><path
               id="path24"
               d="m 1167.7815,370.45155 85.428,0 L 634.68283,735.0236 H 622.5714 Z"
               style="fill:#b82600;fill-opacity:1;fill-rule:nonzero;stroke:none"
               transform="matrix(0.13333333,0,0,-0.13333333,0,98)"
               inkscape:original-d="m 748.348,87.3086 h 28.0625 v 647.715 H 748.348 Z" /><path
               id="path25-9"
               d="m 1310.1559,370.45155 h 28.4799 L 646.79402,735.0236 h -4.0377 z"
               style="fill:#b82600;fill-opacity:1;fill-rule:nonzero;stroke:none"
               transform="matrix(0.13333333,0,0,-0.13333333,0,98)"
               inkscape:original-d="m 795.117,87.3086 h 9.35547 v 647.715 H 795.117 Z" /><path
               id="path26"
               d="m 1367.116,370.45155 85.4279,0 -789.60073,364.57205 h -12.11142 z"
               style="fill:#b82600;fill-opacity:1;fill-rule:nonzero;stroke:none"
               transform="matrix(0.13333333,0,0,-0.13333333,0,98)"
               inkscape:original-d="m 813.828,87.3086 h 28.0625 v 647.715 H 813.828 Z" /><path
               id="path27-2"
               d="m 1509.4934,370.45155 h 28.4799 L 675.0548,735.0236 h -4.0377 z"
               style="fill:#b82600;fill-opacity:1;fill-rule:nonzero;stroke:none"
               transform="matrix(0.13333333,0,0,-0.13333333,0,98)"
               inkscape:original-d="m 860.598,87.3086 h 9.35547 v 647.715 H 860.598 Z" /><path
               id="path28-0"
               d="m 2369.4632,40.535199 h 50.5776 L 683.12862,735.02357 h -4.03601 z"
               style="fill:#b82600;fill-opacity:1;fill-rule:nonzero;stroke:none"
               transform="matrix(0.13333333,0,0,-0.13333333,0,98)"
               inkscape:original-d="m 879.309,40.5352 h 9.35156 v 694.488 H 879.309 Z" /><path
               id="path29-2"
               d="m 2470.6394,40.535199 151.7751,0 L 699.27775,735.02357 h -12.11143 z"
               style="fill:#b82600;fill-opacity:1;fill-rule:nonzero;stroke:none"
               transform="matrix(0.13333333,0,0,-0.13333333,0,98)"
               inkscape:original-d="m 898.016,40.5352 h 28.0625 v 694.488 H 898.016 Z" /><path
               id="path30"
               d="m 2723.6097,40.535199 50.5776,0 L 711.38899,735.02357 h -4.03602 z"
               style="fill:#b82600;fill-opacity:1;fill-rule:nonzero;stroke:none"
               transform="matrix(0.13333333,0,0,-0.13333333,0,98)"
               inkscape:original-d="m 944.789,40.5352 h 9.35156 v 694.488 H 944.789 Z" /><path
               id="path31-3"
               d="m 2824.7859,40.535199 h 50.5988 L 719.46438,735.02357 h -4.0377 z"
               style="fill:#b82600;fill-opacity:1;fill-rule:nonzero;stroke:none"
               transform="matrix(0.13333333,0,0,-0.13333333,0,98)"
               inkscape:original-d="m 963.496,40.5352 h 9.35547 v 694.488 H 963.496 Z" /></g><rect
             style="opacity:1;fill:url(#linearGradient105);stroke:none;stroke-width:0.618679;stroke-dasharray:none;stroke-opacity:1"
             id="rect97"
             width="16.022007"
             height="71.982422"
             x="-69.84523"
             y="64.507233"
             transform="rotate(-90)" /></g><g
           id="g108"
           clip-path="url(#clipPath108)"
           style="fill:none;fill-opacity:1"><g
             inkscape:label="Clip"
             id="g107"
             style="fill:none;fill-opacity:1"><rect
               style="opacity:1;fill:none;fill-opacity:1;stroke:none;stroke-width:1.20037;stroke-dasharray:none;stroke-opacity:1"
               id="rect107"
               width="76.087265"
               height="33.21674"
               x="65.281113"
               y="20.620844" /></g></g></g><g
         id="g171"
         clip-path="url(#clipPath171)"
         inkscape:label="square icon"
         inkscape:export-filename="g171.png"
         inkscape:export-xdpi="458.16098"
         inkscape:export-ydpi="458.16098"
         transform="translate(32.073659,11.589641)"><g
           inkscape:label="Clip"
           id="g170"><rect
             style="opacity:1;fill:#dc0500;fill-opacity:1;stroke:none;stroke-width:2.08992;stroke-dasharray:none;stroke-opacity:1"
             id="rect170"
             width="56.769566"
             height="56.769566"
             x="100.25021"
             y="27.916883"
             inkscape:label="square icon" /></g><rect
           style="opacity:1;fill:url(#linearGradient169);stroke:none;stroke-width:3.18788;stroke-dasharray:none;stroke-opacity:1"
           id="rect121"
           width="98.194992"
           height="48.192951"
           x="45.272339"
           y="13.923356"
           transform="matrix(0.88074957,0,0,0.88074957,38.354217,8.7676505)" /><g
           id="g134"
           transform="matrix(0.88074957,0,0,0.88074957,38.354217,17.132611)"><path
             id="path121"
             style="opacity:1;fill:url(#radialGradient169);fill-opacity:1;stroke:none;stroke-width:2.40161;stroke-dasharray:none;stroke-opacity:1"
             d="M 102.50467,22.614129 A 31.388483,31.388483 0 0 0 71.116242,54.002552 31.388483,31.388483 0 0 0 102.50467,85.390975 31.388483,31.388483 0 0 0 133.89309,54.002552 31.388483,31.388483 0 0 0 102.50467,22.614129 Z m 0,27.919661 a 3.468698,3.468698 0 0 1 3.46876,3.468762 3.468698,3.468698 0 0 1 -3.46876,3.468762 3.468698,3.468698 0 0 1 -3.468767,-3.468762 3.468698,3.468698 0 0 1 3.468767,-3.468762 z" /><g
             id="g133"
             transform="matrix(0.23156081,0,0,0.23156081,248.81786,-10.904231)"><path
               id="path122"
               style="opacity:1;fill:#f6e5e5;fill-opacity:1;stroke:none;stroke-width:11.5604;stroke-dasharray:none;stroke-opacity:1"
               d="m -631.85741,187.88085 a 92.419342,92.419342 0 0 0 -92.41992,92.41992 92.419342,92.419342 0 0 0 92.41992,92.41992 92.419342,92.419342 0 0 0 92.41992,-92.41992 92.419342,92.419342 0 0 0 -92.41992,-92.41992 z m 0,78.16602 a 14.253728,14.253728 0 0 1 14.2539,14.2539 14.253728,14.253728 0 0 1 -14.2539,14.25391 14.253728,14.253728 0 0 1 -14.25391,-14.25391 14.253728,14.253728 0 0 1 14.25391,-14.2539 z" /><path
               id="path123"
               d="m -623.98782,266.81921 a 11.764253,11.764253 0 0 1 1.57611,1.7323 l 60.94557,-45.23978 v 0 a 87.66614,87.66614 0 0 0 -11.7691,-12.92989"
               style="fill:#f04f00;fill-opacity:1;stroke-width:3.79619" /><path
               id="path124"
               d="m -625.87339,265.43488 a 11.764253,11.764253 0 0 1 1.88557,1.38433 l 50.75258,-56.43737 v 0 A 87.66614,87.66614 0 0 0 -587.272,200.08249"
               style="fill:#febd18;fill-opacity:1;stroke-width:3.79619" /><path
               id="path125"
               d="m -627.94287,264.46945 a 11.764253,11.764253 0 0 1 2.06948,0.96543 l 38.60139,-65.35239 v 0 a 87.66614,87.66614 0 0 0 -15.44534,-7.19992"
               style="fill:#fbed32;fill-opacity:1;stroke-width:3.79619" /><path
               id="path126"
               d="m -630.45915,265.00036 a 11.764253,11.764253 0 0 1 2.27224,0.55557 l 25.23505,-71.58346 v 0 a 87.66614,87.66614 0 0 0 -16.91294,-4.13036"
               style="fill:#febd18;fill-opacity:1;stroke-width:3.79619" /><path
               id="path127"
               d="m -623.98782,266.81921 a 11.764253,11.764253 0 0 1 1.57611,1.7323 l 60.94557,-45.23978 v 0 a 87.66614,87.66614 0 0 0 -11.7691,-12.92989"
               style="fill:#f04f00;fill-opacity:1;stroke-width:3.79619"
               transform="rotate(180,-631.85724,280.30109)" /><path
               id="path128"
               d="m -625.87339,265.43488 a 11.764253,11.764253 0 0 1 1.88557,1.38433 l 50.75258,-56.43737 v 0 A 87.66614,87.66614 0 0 0 -587.272,200.08249"
               style="fill:#febd18;fill-opacity:1;stroke-width:3.79619"
               transform="rotate(180,-631.85724,280.30109)" /><path
               id="path129"
               d="m -627.94287,264.46945 a 11.764253,11.764253 0 0 1 2.06948,0.96543 l 38.60139,-65.35239 v 0 a 87.66614,87.66614 0 0 0 -15.44534,-7.19992"
               style="fill:#fbed32;fill-opacity:1;stroke-width:3.79619"
               transform="rotate(180,-631.85724,280.30109)" /><path
               id="path130"
               d="m -630.45915,265.00036 a 11.764253,11.764253 0 0 1 2.27224,0.55557 l 25.23505,-71.58346 v 0 a 87.66614,87.66614 0 0 0 -16.91294,-4.13036"
               style="fill:#febd18;fill-opacity:1;stroke-width:3.79619"
               transform="rotate(180,-631.85724,280.30109)" /><path
               id="path131"
               d="m -632.14676,260.95245 a 11.764253,11.194976 0 0 1 2.34019,0.0875 l 10.51161,-71.53233 v 0 a 87.66614,83.423939 0 0 0 -17.47077,-0.64966"
               style="fill:#f04f00;fill-opacity:1;stroke-width:3.70321"
               transform="rotate(180,-631.85724,280.30109)" /><path
               id="path132"
               d="m -632.14676,260.95245 a 11.764253,11.194976 0 0 1 2.34019,0.0875 l 10.51161,-71.53233 v 0 a 87.66614,83.423939 0 0 0 -17.47077,-0.64966"
               style="fill:#f04f00;fill-opacity:1;stroke-width:3.70321" /><path
               id="path133"
               style="fill:#f8f8f8;fill-opacity:1;stroke:#2e2e2e;stroke-width:3.29497;stroke-dasharray:none;stroke-opacity:1"
               d="m -631.85726,245.90705 c -18.99529,2e-5 -34.39402,15.39875 -34.39404,34.39404 3e-5,18.99529 15.39875,34.39401 34.39404,34.39403 18.99529,-3e-5 34.394,-15.39874 34.39403,-34.39403 -2e-5,-18.99529 -15.39874,-34.39401 -34.39403,-34.39404 z m 0,19.75099 c 8.0871,7e-5 14.64298,6.55595 14.64305,14.64305 -7e-5,8.0871 -6.55595,14.64298 -14.64305,14.64305 -8.08711,-6e-5 -14.64299,-6.55594 -14.64306,-14.64305 7e-5,-8.08711 6.55595,-14.64299 14.64306,-14.64305 z"
               sodipodi:nodetypes="sssssccccc" /><circle
               style="opacity:1;fill:#000000;fill-opacity:0;stroke:#2e2e2e;stroke-width:7.4333;stroke-dasharray:none;stroke-opacity:1"
               id="circle133"
               cx="-631.85724"
               cy="280.30109"
               r="92.419342" /></g></g><g
           id="g165"
           clip-path="url(#clipPath66)"
           transform="matrix(1.3053057,0,0,0.64975496,-7.0847557,28.33865)"><g
             inkscape:label="Clip"
             id="g135"><rect
               style="fill:#720000;fill-opacity:1;stroke:none;stroke-width:1.89622;stroke-dasharray:none;stroke-opacity:1"
               id="rect134"
               width="104.80468"
               height="46.474476"
               x="54.624664"
               y="53.838024" /></g><g
             id="g164"
             transform="matrix(0.99446754,0,0,0.34790703,33.526018,53.810028)"
             style="fill:#b82600;fill-opacity:1"
             inkscape:path-effect="#path-effect169"><path
               id="path135"
               d="m -1930.9264,40.535199 h 50.5987 L 339.96566,735.02357 h -4.0377 z"
               style="fill:#b82600;fill-opacity:1;fill-rule:nonzero;stroke:none"
               transform="matrix(0.13333333,0,0,-0.13333333,0,98)"
               inkscape:original-d="m 84.1875,40.5352 h 9.35547 v 694.488 H 84.1875 Z" /><path
               id="path136"
               d="m -1829.7313,40.535199 h 50.5988 L 348.04088,735.02357 h -4.0377 z"
               style="fill:#b82600;fill-opacity:1;fill-rule:nonzero;stroke:none"
               transform="matrix(0.13333333,0,0,-0.13333333,0,98)"
               inkscape:original-d="m 102.898,40.5352 h 9.35547 v 694.488 H 102.898 Z" /><path
               id="path137"
               d="m -1728.5551,40.535199 h 50.5988 L 356.11459,735.02357 h -4.0377 z"
               style="fill:#b82600;fill-opacity:1;fill-rule:nonzero;stroke:none"
               transform="matrix(0.13333333,0,0,-0.13333333,0,98)"
               inkscape:original-d="m 121.605,40.5352 h 9.35547 v 694.488 H 121.605 Z" /><path
               id="path138"
               d="m -1627.3572,40.535199 h 202.353 L 376.29979,735.02357 h -16.14746 z"
               style="fill:#b82600;fill-opacity:1;fill-rule:nonzero;stroke:none"
               transform="matrix(0.13333333,0,0,-0.13333333,0,98)"
               inkscape:original-d="m 140.316,40.5352 h 37.4141 v 694.488 H 140.316 Z" /><path
               id="path139"
               d="m -540.81439,370.45155 h 56.9598 L 388.41315,735.0236 h -8.07539 z"
               style="fill:#b82600;fill-opacity:1;fill-rule:nonzero;stroke:none"
               transform="matrix(0.13333333,0,0,-0.13333333,0,98)"
               inkscape:original-d="m 187.086,87.3086 h 18.7109 v 647.715 H 187.086 Z" /><path
               id="path140"
               d="m -455.38794,370.45155 h 85.42797 L 404.56039,735.0236 h -12.11142 z"
               style="fill:#b82600;fill-opacity:1;fill-rule:nonzero;stroke:none"
               transform="matrix(0.13333333,0,0,-0.13333333,0,98)"
               inkscape:original-d="m 215.148,87.3086 h 28.0625 v 647.715 H 215.148 Z" /><path
               id="path141"
               d="m -312.99835,370.45155 h 28.47995 L 416.67375,735.0236 h -4.03771 z"
               style="fill:#b82600;fill-opacity:1;fill-rule:nonzero;stroke:none"
               transform="matrix(0.13333333,0,0,-0.13333333,0,98)"
               inkscape:original-d="m 261.922,87.3086 h 9.35547 v 647.715 H 261.922 Z" /><path
               id="path142"
               d="m -227.57191,370.45155 h 56.94792 L 432.82096,735.0236 h -8.07371 z"
               style="fill:#b82600;fill-opacity:1;fill-rule:nonzero;stroke:none"
               transform="matrix(0.13333333,0,0,-0.13333333,0,98)"
               inkscape:original-d="m 289.984,87.3086 h 18.707 v 647.715 h -18.707 z" /><path
               id="path143"
               d="m -113.66389,370.45155 h 56.947918 L 448.9701,735.0236 h -8.07371 z"
               style="fill:#b82600;fill-opacity:1;fill-rule:nonzero;stroke:none"
               transform="matrix(0.13333333,0,0,-0.13333333,0,98)"
               inkscape:original-d="m 327.402,87.3086 h 18.707 v 647.715 h -18.707 z" /><path
               id="path144"
               d="M 0.24412396,370.45155 H 28.712178 L 461.08154,735.0236 h -4.03601 z"
               style="fill:#b82600;fill-opacity:1;fill-rule:nonzero;stroke:none"
               transform="matrix(0.13333333,0,0,-0.13333333,0,98)"
               inkscape:original-d="m 364.82,87.3086 h 9.35156 v 647.715 H 364.82 Z" /><path
               id="path145"
               d="M 85.673614,370.45155 H 142.62153 L 477.23087,735.0236 h -8.0737 z"
               style="fill:#b82600;fill-opacity:1;fill-rule:nonzero;stroke:none"
               transform="matrix(0.13333333,0,0,-0.13333333,0,98)"
               inkscape:original-d="m 392.883,87.3086 h 18.707 v 647.715 h -18.707 z" /><path
               id="path146"
               d="m 199.58163,370.45155 h 28.46805 L 489.34232,735.0236 h -4.03601 z"
               style="fill:#b82600;fill-opacity:1;fill-rule:nonzero;stroke:none"
               transform="matrix(0.13333333,0,0,-0.13333333,0,98)"
               inkscape:original-d="m 430.301,87.3086 h 9.35156 v 647.715 H 430.301 Z" /><path
               id="path147"
               d="m 313.47747,370.45155 h 56.95979 L 509.52911,735.0236 h -8.07539 z"
               style="fill:#b82600;fill-opacity:1;fill-rule:nonzero;stroke:none"
               transform="matrix(0.13333333,0,0,-0.13333333,0,98)"
               inkscape:original-d="m 467.715,87.3086 h 18.7109 v 647.715 H 467.715 Z" /><path
               id="path148"
               d="m 398.91609,370.45155 h 28.46806 l 90.21852,364.57205 h -4.03602 z"
               style="fill:#b82600;fill-opacity:1;fill-rule:nonzero;stroke:none"
               transform="matrix(0.13333333,0,0,-0.13333333,0,98)"
               inkscape:original-d="m 495.781,87.3086 h 9.35156 v 647.715 H 495.781 Z" /><path
               id="path149"
               d="m 396.34027,40.535199 h 50.59876 l 78.73903,694.488371 h -4.03771 z"
               style="fill:#b82600;fill-opacity:1;fill-rule:nonzero;stroke:none"
               transform="matrix(0.13333333,0,0,-0.13333333,0,98)"
               inkscape:original-d="m 514.488,40.5352 h 9.35547 v 694.488 H 514.488 Z" /><path
               id="path150"
               d="m 497.51649,40.535199 h 50.59876 L 533.75177,735.02357 h -4.0377 z"
               style="fill:#b82600;fill-opacity:1;fill-rule:nonzero;stroke:none"
               transform="matrix(0.13333333,0,0,-0.13333333,0,98)"
               inkscape:original-d="m 533.195,40.5352 h 9.35547 v 694.488 H 533.195 Z"
               sodipodi:nodetypes="ccccc" /><path
               id="path151"
               d="m 569.77203,370.45155 h 85.42796 L 549.90092,735.0236 H 537.7895 Z"
               style="fill:#b82600;fill-opacity:1;fill-rule:nonzero;stroke:none"
               transform="matrix(0.13333333,0,0,-0.13333333,0,98)"
               inkscape:original-d="m 551.906,87.3086 h 28.0625 v 647.715 H 551.906 Z" /><path
               id="path152"
               d="m 712.14944,370.45155 h 28.47995 L 562.01255,735.0236 h -4.0377 z"
               style="fill:#b82600;fill-opacity:1;fill-rule:nonzero;stroke:none"
               transform="matrix(0.13333333,0,0,-0.13333333,0,98)"
               inkscape:original-d="m 598.676,87.3086 h 9.35547 v 647.715 H 598.676 Z" /><path
               id="path153"
               d="M 769.10953,370.45155 H 854.5375 L 578.1617,735.0236 h -12.11142 z"
               style="fill:#b82600;fill-opacity:1;fill-rule:nonzero;stroke:none"
               transform="matrix(0.13333333,0,0,-0.13333333,0,98)"
               inkscape:original-d="m 617.387,87.3086 h 28.0625 v 647.715 H 617.387 Z" /><path
               id="path154"
               d="m 911.4839,370.45155 h 28.47996 L 590.2729,735.0236 h -4.03771 z"
               style="fill:#b82600;fill-opacity:1;fill-rule:nonzero;stroke:none"
               transform="matrix(0.13333333,0,0,-0.13333333,0,98)"
               inkscape:original-d="m 664.156,87.3086 h 9.35547 v 647.715 H 664.156 Z" /><path
               id="path155"
               d="M 968.44399,370.45155 H 1053.872 L 606.42205,735.0236 h -12.11143 z"
               style="fill:#b82600;fill-opacity:1;fill-rule:nonzero;stroke:none"
               transform="matrix(0.13333333,0,0,-0.13333333,0,98)"
               inkscape:original-d="m 682.867,87.3086 h 28.0625 v 647.715 H 682.867 Z" /><path
               id="path156"
               d="m 1110.8214,370.45155 h 28.48 L 618.53367,735.0236 h -4.0377 z"
               style="fill:#b82600;fill-opacity:1;fill-rule:nonzero;stroke:none"
               transform="matrix(0.13333333,0,0,-0.13333333,0,98)"
               inkscape:original-d="m 729.637,87.3086 h 9.35547 v 647.715 H 729.637 Z" /><path
               id="path157"
               d="m 1167.7815,370.45155 h 85.428 L 634.68283,735.0236 H 622.5714 Z"
               style="fill:#b82600;fill-opacity:1;fill-rule:nonzero;stroke:none"
               transform="matrix(0.13333333,0,0,-0.13333333,0,98)"
               inkscape:original-d="m 748.348,87.3086 h 28.0625 v 647.715 H 748.348 Z" /><path
               id="path158"
               d="m 1310.1559,370.45155 h 28.4799 L 646.79402,735.0236 h -4.0377 z"
               style="fill:#b82600;fill-opacity:1;fill-rule:nonzero;stroke:none"
               transform="matrix(0.13333333,0,0,-0.13333333,0,98)"
               inkscape:original-d="m 795.117,87.3086 h 9.35547 v 647.715 H 795.117 Z" /><path
               id="path159"
               d="m 1367.116,370.45155 h 85.4279 L 662.94317,735.0236 h -12.11142 z"
               style="fill:#b82600;fill-opacity:1;fill-rule:nonzero;stroke:none"
               transform="matrix(0.13333333,0,0,-0.13333333,0,98)"
               inkscape:original-d="m 813.828,87.3086 h 28.0625 v 647.715 H 813.828 Z" /><path
               id="path160"
               d="m 1509.4934,370.45155 h 28.4799 L 675.0548,735.0236 h -4.0377 z"
               style="fill:#b82600;fill-opacity:1;fill-rule:nonzero;stroke:none"
               transform="matrix(0.13333333,0,0,-0.13333333,0,98)"
               inkscape:original-d="m 860.598,87.3086 h 9.35547 v 647.715 H 860.598 Z" /><path
               id="path161"
               d="m 2369.4631,40.535199 h 50.5777 L 683.12862,735.02357 h -4.03601 z"
               style="fill:#b82600;fill-opacity:1;fill-rule:nonzero;stroke:none"
               transform="matrix(0.13333333,0,0,-0.13333333,0,98)"
               inkscape:original-d="m 879.309,40.5352 h 9.35156 v 694.488 H 879.309 Z" /><path
               id="path162"
               d="m 2470.6394,40.535199 h 151.7751 L 699.27775,735.02357 h -12.11143 z"
               style="fill:#b82600;fill-opacity:1;fill-rule:nonzero;stroke:none"
               transform="matrix(0.13333333,0,0,-0.13333333,0,98)"
               inkscape:original-d="m 898.016,40.5352 h 28.0625 v 694.488 H 898.016 Z" /><path
               id="path163"
               d="m 2723.6097,40.535199 h 50.5776 L 711.38899,735.02357 h -4.03602 z"
               style="fill:#b82600;fill-opacity:1;fill-rule:nonzero;stroke:none"
               transform="matrix(0.13333333,0,0,-0.13333333,0,98)"
               inkscape:original-d="m 944.789,40.5352 h 9.35156 v 694.488 H 944.789 Z" /><path
               id="path164"
               d="m 2824.7859,40.535199 h 50.5987 L 719.46438,735.02357 h -4.0377 z"
               style="fill:#b82600;fill-opacity:1;fill-rule:nonzero;stroke:none"
               transform="matrix(0.13333333,0,0,-0.13333333,0,98)"
               inkscape:original-d="m 963.496,40.5352 h 9.35547 v 694.488 H 963.496 Z" /></g><rect
             style="opacity:1;fill:url(#linearGradient170);stroke:none;stroke-width:0.618679;stroke-dasharray:none;stroke-opacity:1"
             id="rect164"
             width="16.022007"
             height="71.982422"
             x="-69.84523"
             y="64.507233"
             transform="rotate(-90)" /></g><g
           id="g167"
           clip-path="url(#clipPath108)"
           style="fill:none;fill-opacity:1"
           transform="matrix(0.88074957,0,0,0.88074957,38.354217,8.7676505)"><g
             inkscape:label="Clip"
             id="g166"
             style="fill:none;fill-opacity:1"><rect
               style="opacity:1;fill:none;fill-opacity:1;stroke:none;stroke-width:1.20037;stroke-dasharray:none;stroke-opacity:1"
               id="rect165"
               width="76.087265"
               height="33.21674"
               x="65.281113"
               y="20.620844" /></g></g></g></g></g></svg>
